<?xml version="1.0" encoding="UTF-8" standalone="no"?>
<svg
   xml:space="preserve"
   height="920.99823"
   viewBox="0 0 1689.6721 920.99822"
   width="1689.6721"
   version="1.1"
   id="svg1267"
   sodipodi:docname="Dish Mexico logo 2008.svg"
   inkscape:version="1.2 (dc2aedaf03, 2022-05-15)"
   xmlns:inkscape="http://www.inkscape.org/namespaces/inkscape"
   xmlns:sodipodi="http://sodipodi.sourceforge.net/DTD/sodipodi-0.dtd"
   xmlns="http://www.w3.org/2000/svg"
   xmlns:svg="http://www.w3.org/2000/svg"><title>Dish logo</title><defs
     id="defs1271" /><sodipodi:namedview
     id="namedview1269"
     pagecolor="#ffffff"
     bordercolor="#000000"
     borderopacity="0.25"
     inkscape:showpageshadow="2"
     inkscape:pageopacity="0.0"
     inkscape:pagecheckerboard="0"
     inkscape:deskcolor="#d1d1d1"
     showgrid="false"
     inkscape:zoom="0.70910507"
     inkscape:cx="807.35567"
     inkscape:cy="456.91395"
     inkscape:window-width="1920"
     inkscape:window-height="1009"
     inkscape:window-x="-8"
     inkscape:window-y="-8"
     inkscape:window-maximized="1"
     inkscape:current-layer="svg1267" /><path
     style="fill:#e41932;fill-opacity:1;stroke-width:21"
     d="m 496.92834,801.59243 c -1.7325,0.14609 -2.17622,2.10649 -0.8526,4.62651 26.58601,51.23999 64.3776,94.43489 139.15861,94.43489 74.78103,0 112.57262,-43.1949 139.15865,-94.43489 1.76398,-3.36002 0.38421,-5.70928 -3.01875,-4.13427 -19.82402,9.156 -71.87883,33.30389 -136.13882,33.30389 -64.28103,0 -116.29384,-24.1479 -136.13883,-33.30389 -0.8442,-0.3948 -1.5876,-0.544 -2.16553,-0.4914 z"
     id="path2054" /><path
     style="fill:#e41932;fill-opacity:1;stroke-width:21"
     d="m 526.75464,678.41479 c -1.46783,0.16801 -1.8417,1.8228 -0.78743,3.83922 20.601,39.94202 50.21312,74.81252 109.26513,74.81252 59.073,0 88.66412,-34.8705 109.26512,-74.81252 1.386,-2.68799 0.2856,-4.70545 -2.592,-3.44545 -13.18802,6.048 -54.25772,24.3474 -106.67373,24.3474 -52.395,0 -93.48571,-18.29899 -106.67372,-24.3474 -0.72039,-0.315 -1.3146,-0.44739 -1.8039,-0.39279 z"
     id="path2052" /><path
     style="fill:#e41932;fill-opacity:1;stroke-width:21"
     d="m 554.05464,565.50617 c -1.21599,0.168 -1.52661,1.52459 -0.75381,3.05152 15.162,29.67302 37.3086,56.83022 81.93361,56.83022 44.646,0 66.78,-27.1572 81.9,-56.83022 1.07101,-2.037 0.1461,-3.76426 -2.26422,-2.75626 -7.098,3.171 -38.1402,16.14375 -79.63618,16.14375 -41.49602,0 -72.57182,-12.97275 -79.66981,-16.14375 -0.59843,-0.252 -1.1046,-0.3486 -1.50983,-0.29618 z"
     id="path2050" /><path
     style="fill:#e41932;fill-opacity:1;stroke-width:21"
     d="m 580.95564,459.61995 c -1.974,-0.735 -2.68002,0.68661 -1.9026,2.19849 9.975,19.92901 25.07401,39.9 56.17501,39.9 31.08,0 46.23362,-19.971 56.20862,-39.9 0.735,-1.512 0.0201,-2.93349 -1.9677,-2.19849 -1.34401,0.504 -22.99081,8.49849 -54.23881,8.49849 -31.24802,0 -52.92842,-7.99449 -54.27242,-8.49849 z"
     id="path2046" /><path
     style="fill:#000000;fill-opacity:1;stroke-width:21"
     d="m 942.28172,435.56865 c -85.26002,0 -147.16383,55.7088 -147.16383,132.46382 0,77.84702 57.0528,116.50383 120.61981,152.41384 l 56.66642,32.2224 c 30.86998,17.388 44.65858,37.0398 44.65858,63.68882 0,35.301 -26.05048,57.225 -67.98748,57.225 -77.32202,0 -100.55854,-64.2411 -113.13754,-127.11512 l -1.96769,-9.77824 h -37.83361 v 176.92504 h 29.40001 l 3.64203,-4.10151 c 6.783,-7.644 6.76073,-7.64526 13.35473,-7.64526 11.361,-0.378 26.0358,3.08574 42.9198,7.05474 21.21002,4.935 45.28022,10.53276 70.48022,10.53276 63.94503,0 153.98883,-42.89041 153.98883,-138.27243 0,-66.528 -39.8391,-96.33961 -87.9711,-125.80261 -0.042,-0.042 -105.72243,-62.63882 -105.72243,-62.63882 -24.23402,-14.44801 -36.06122,-33.75121 -36.06122,-58.93021 0,-20.622 16.54403,-51.31982 62.11382,-51.31982 33.831,0 75.40893,12.55002 96.53493,110.57763 l 2.1,9.67974 h 37.1112 l -4.6593,-158.38623 h -29.6625 l -3.5437,6.13601 c -1.596,2.877 -4.238,4.59373 -6.989,4.59373 -1.533,-0.0639 -9.878,-2.74699 -14.897,-4.36399 -18.90003,-6.04802 -47.28783,-15.1595 -75.99482,-15.1595 z"
     id="path2044" /><path
     id="path2042"
     style="fill:#000000;fill-opacity:1;stroke-width:21"
     d="m 395.65162,216.68562 -1.1802,0.42637 -3.18297,1.14863 v -0.042 c -17.53497,6.279 -86.6964,28.9212 -142.47241,42.6552 l -9.31875,2.32974 v 38.7513 l 13.42027,-1.4112 c 31.33199,-3.213 43.2138,0.8652 47.64479,4.85626 5.145,4.641 5.41401,14.05172 5.41401,28.9401 v 130.42893 c -28.66501,-20.32801 -56.36613,-29.17111 -91.41515,-29.17111 -55.60798,0 -110.8968,27.90691 -151.5948,76.58491 C 22.9404,560.04177 0,624.21569 0,688.2867 c 0,224.70003 170.68171,231.16805 190.14871,231.16805 47.54402,0 86.40662,-14.78675 115.82762,-43.64012 v 34.68359 l 14.04376,10.5 157.95993,-55.9125 V 827.6469 l -13.125,1.0164 c -30.702,2.394 -42.45991,-2.0853 -46.95391,-6.2015 -4.557,-4.22099 -5.38125,-11.59199 -5.38125,-24.675 V 223.4367 l -16.86573,-6.75927 z M 217.48759,487.37985 c 55.39801,0 88.4961,46.47512 88.4961,91.41511 v 217.16106 c -6.71998,28.01401 -38.14648,48.3651 -74.8125,48.3651 -56.59499,0 -122.71771,-49.1463 -122.71771,-187.32633 0,-125.18103 58.7202,-169.60864 109.03621,-169.60864 z" /><path
     style="fill:#000000;fill-opacity:1;stroke-width:21"
     d="m 1245.7948,216.12702 -1.51,0.6552 -4.1672,1.67361 c -20.6221,8.463 -100.6699,32.3421 -137.4199,42.59011 l -8.925,2.46099 v 38.5539 l 13.5517,-1.50981 c 8.127,-0.924 14.427,-0.91779 23.1,-0.91779 9.072,0 15.5085,1.9068 19.1625,5.64375 6.1531,6.237 5.9876,18.58122 5.8406,28.5138 0,0.0639 -0.062,4.42955 -0.062,4.42955 v 459.54306 c 0,62.47501 -3.8811,67.91401 -51.6138,72.97501 l -10.9923,1.14879 v 37.83362 h 226.6943 V 870.936 l -2.0013,-0.189 c -43.785,-4.6621 -55.5513,-5.94583 -55.5513,-71.9902 V 567.10573 c 5.481,-6.80398 45.7695,-54.3039 95.2875,-54.3039 42.987,0 62.1138,29.10182 62.1138,94.36984 V 799.748 c 0,60.64801 -10.4725,67.61371 -55.2237,70.97371 l -0.8862,0.0639 v 38.9487 h 221.2561 v -37.1112 l -10.0408,-1.73882 c -43.029,-7.602 -48.5961,-8.64148 -48.5961,-71.13751 V 603.23207 c 0,-111.23703 -44.5977,-167.63886 -132.3987,-167.63886 -49.644,0 -94.9305,21.16383 -131.5125,60.76981 V 225.79899 l -16.111,-9.64677 z"
     id="path2040" /><path
     style="fill:#e41932;fill-opacity:1;stroke-width:21"
     d="m 635.21965,215.83092 c -47.01898,0 -85.14871,38.1402 -85.14871,85.1802 0,47.04001 38.1297,85.14872 85.14871,85.14872 47.04002,0 85.14873,-38.10871 85.14873,-85.14872 0,-47.04 -38.1087,-85.1802 -85.14873,-85.1802 z"
     id="path1263" /><path
     fill="#ff0000"
     d="M 1510.5101,193.71903 C 1394.5716,31.137668 1062.8976,68.744118 731.23549,270.26248 729.47994,264.47934 727.25295,258.94611 724.59341,253.63407 1133.4245,-4.908592 1536.1761,-77.413132 1655.7051,90.191558 c 73.8033,103.527472 23.6487,278.543022 -114.6796,468.419082 -2.5751,-32.68951 -9.6885,-59.68706 -21.4773,-80.92343 42.1539,-111.30812 42.3786,-211.89084 -9.0381,-283.96818"
     id="path1285"
     style="fill:#e41932;fill-opacity:1;stroke-width:1.68909" /></svg>
