<?xml version="1.0" encoding="UTF-8" standalone="no"?>
<!-- Created with Inkscape (http://www.inkscape.org/) -->

<svg
   xmlns:dc="http://purl.org/dc/elements/1.1/"
   xmlns:cc="http://creativecommons.org/ns#"
   xmlns:rdf="http://www.w3.org/1999/02/22-rdf-syntax-ns#"
   xmlns:svg="http://www.w3.org/2000/svg"
   xmlns="http://www.w3.org/2000/svg"
   xmlns:sodipodi="http://sodipodi.sourceforge.net/DTD/sodipodi-0.dtd"
   xmlns:inkscape="http://www.inkscape.org/namespaces/inkscape"
   version="1.1"
   width="100"
   height="22"
   id="svg3710"
   inkscape:version="0.48.4 r9939"
   sodipodi:docname="Abierto_mexicano_Telcel_presentado_por_HSBC_logo.svg">
  <title
     id="title3158">Telecel logo</title>
  <sodipodi:namedview
     pagecolor="#ffffff"
     bordercolor="#666666"
     borderopacity="1"
     objecttolerance="10"
     gridtolerance="10"
     guidetolerance="10"
     inkscape:pageopacity="0"
     inkscape:pageshadow="2"
     inkscape:window-width="1600"
     inkscape:window-height="844"
     id="namedview62"
     showgrid="false"
     inkscape:showpageshadow="false"
     inkscape:zoom="1"
     inkscape:cx="23.778067"
     inkscape:cy="17.540976"
     inkscape:window-x="-4"
     inkscape:window-y="-4"
     inkscape:window-maximized="1"
     inkscape:current-layer="svg3710" />
  <defs
     id="defs3712" />
  <metadata
     id="metadata3715">
    <rdf:RDF>
      <cc:Work
         rdf:about="">
        <dc:format>image/svg+xml</dc:format>
        <dc:type
           rdf:resource="http://purl.org/dc/dcmitype/StillImage" />
        <dc:title>Telecel logo</dc:title>
      </cc:Work>
    </rdf:RDF>
  </metadata>
  <g
     transform="matrix(0.40086309,0,0,0.38856489,-86.292377,-187.65682)"
     id="layer1">
    <path
       d="m 254.2753,535.82605 1.78779,1.74872 1.47067,-1.74872 7.41999,0 1.62463,-2.42661 -11.34255,0 -0.324,-0.35388 -3.51353,0 -0.20911,0.35388 -33.80705,0 -1.59246,2.42661 38.48562,0 z"
       id="path3143"
       style="fill:#254aa5;fill-opacity:1;fill-rule:evenodd;stroke:none"
       inkscape:connector-curvature="0" />
    <path
       d="m 253.33956,530.85448 -4.65788,0 -1.22019,-1.2133 -27.73595,0 1.60165,-2.44959 23.73296,0 0.0919,-0.53772 4.67858,0 0.12408,0.53772 20.56182,0 -1.62464,2.44959 -16.4876,0 c 0,0 0.10571,0.62503 0.93525,1.2133"
       id="path3155"
       style="fill:#254aa5;fill-opacity:1;fill-rule:evenodd;stroke:none"
       inkscape:connector-curvature="0" />
    <path
       d="m 247.10555,523.47587 25.90449,0 1.60854,-2.4358 -27.5521,0 0.37456,-0.58138 -8.23577,0 -0.37455,0.58138 -13.40839,0 -1.60395,2.4358 17.55154,0 1.1053,1.05245 5.47596,0 -0.84563,-1.05245 z"
       id="path3159"
       style="fill:#254aa5;fill-opacity:1;fill-rule:evenodd;stroke:none"
       inkscape:connector-curvature="0" />
    <path
       d="m 250.19326,517.03547 27.05575,0 1.61084,-2.4404 -27.02818,0 -0.19532,-0.51703 -8.11856,0 -0.31022,0.51703 -13.54167,0 -1.59706,2.4404 12.55126,0 c 0,0 0.83645,0.19762 0.25048,1.02717 l 8.41959,0 0.90309,-1.02717 z"
       id="path3163"
       style="fill:#254aa5;fill-opacity:1;fill-rule:evenodd;stroke:none"
       inkscape:connector-curvature="0" />
    <path
       d="m 254.61191,510.84072 26.63984,0 1.62003,-2.4358 -25.96423,0 -0.15626,-0.51244 -8.95271,0 -0.3355,0.51244 -13.78754,0 -1.60855,2.4358 12.88446,0 c 0,0 0.6595,0.31022 0.19991,0.95594 l 9.06762,0 c 0,0 0.009,-0.39294 0.39293,-0.95594"
       id="path3167"
       style="fill:#254aa5;fill-opacity:1;fill-rule:evenodd;stroke:none"
       inkscape:connector-curvature="0" />
    <path
       d="m 258.65121,505.61432 -9.20318,0 c 0.50783,-0.83874 -0.71695,-0.97661 -0.71695,-0.97661 l -12.71901,0 1.59016,-2.4427 14.12304,0 0.35847,-0.5607 9.26064,0 0.39984,0.5607 25.06345,0 -1.62462,2.4427 -25.98264,0 c 0,0 -0.39295,0.4297 -0.5492,0.97661"
       id="path3171"
       style="fill:#254aa5;fill-opacity:1;fill-rule:evenodd;stroke:none"
       inkscape:connector-curvature="0" />
    <path
       d="m 265.10518,498.51512 24.22701,0 1.60625,-2.44039 -23.76283,0 -0.59746,-1.05705 -9.93393,0 -0.7629,1.05705 -14.11845,0 -1.60624,2.44039 12.56044,0 c 0,0 1.50284,0.009 0.82266,1.00649 l 11.19319,0 c 0,0 0.0438,-0.34238 0.37226,-1.00649"
       id="path3175"
       style="fill:#254aa5;fill-opacity:1;fill-rule:evenodd;stroke:none"
       inkscape:connector-curvature="0" />
    <path
       d="m 267.51981,489.93489 27.35679,0 -1.61544,2.4381 -23.3423,0 c -0.65952,0 -1.10301,1.02487 -1.10301,1.02487 l -11.0691,0 c 0.56069,-0.97431 -0.6664,-1.02487 -0.6664,-1.02487 l -12.98557,0 1.58557,-2.4381 20.45153,0 0.85712,-0.78819 2.05204,-2.7713 -0.49175,0 1.83834,-2.37145 1.39943,0 -1.70506,2.37145 -0.41362,0 -2.24048,2.86552 0.0919,0.69397 z"
       id="path3179"
       style="fill:#254aa5;fill-opacity:1;fill-rule:evenodd;stroke:none"
       inkscape:connector-curvature="0" />
    <path
       d="m 310.83916,490.05509 -6.4296,9.65817 -5.24845,0 -4.4327,6.59274 5.51272,0 -15.70861,23.61346 c 0,0 -1.22019,1.8797 -1.22019,4.56828 0,2.68167 3.36416,3.08841 3.36416,3.08841 l 11.9515,0 3.7663,-6.84322 -5.91716,0 c 0,0 -2.28413,-0.27116 -1.2156,-2.13477 1.08002,-1.89809 14.82161,-22.29216 14.82161,-22.29216 l 6.93284,0 3.80076,-6.59274 -6.34917,0 6.37675,-9.65817 -10.00516,0 z"
       id="path3183"
       style="fill:#254aa5;fill-opacity:1;fill-rule:evenodd;stroke:none"
       inkscape:connector-curvature="0" />
    <path
       d="m 348.11998,537.57546 30.38773,-47.52106 -10.16601,0 -30.37165,47.52106 10.14993,0 z"
       id="path3187"
       style="fill:#254aa5;fill-opacity:1;fill-rule:evenodd;stroke:none"
       inkscape:connector-curvature="0" />
    <path
       d="m 433.50209,537.57546 30.38314,-47.52106 -10.14762,0 -30.38085,47.52106 10.14533,0 z"
       id="path3191"
       style="fill:#254aa5;fill-opacity:1;fill-rule:evenodd;stroke:none"
       inkscape:connector-curvature="0" />
    <path
       d="m 323.19737,515.49035 16.10845,0 c 0,0 1.80157,-3.08612 2.34388,-5.63911 0.54921,-2.553 -2.39904,-3.22859 -5.69885,-3.22859 -3.27914,0 -8.32308,0.3447 -12.75348,8.8677 m 20.26769,6.65018 -24.43841,0 c 0,0 -2.49095,3.04705 -2.77131,5.63911 0,0 0,2.13936 2.58977,2.13936 l 18.79701,0 -4.92215,7.65669 -15.30877,0 c 0,0 -11.6252,0 -11.6252,-6.84322 0,0 -0.10791,-5.11518 8.4173,-16.98396 8.52759,-11.88946 14.36432,-12.34674 24.16267,-12.34674 9.79605,0 12.45474,3.10909 12.14911,5.69426 -0.3286,2.94824 -0.67328,4.49933 -7.05002,15.0445"
       id="path3195"
       style="fill:#254aa5;fill-opacity:1;fill-rule:evenodd;stroke:none"
       inkscape:connector-curvature="0" />
    <path
       d="m 407.69986,515.49035 16.10845,0 c 0,0 1.80617,-3.08612 2.34388,-5.63911 0.54691,-2.553 -2.41282,-3.22859 -5.70115,-3.22859 -3.28603,0 -8.32998,0.3447 -12.75118,8.8677 m 20.2608,6.65018 -24.43612,0 c 0,0 -2.49784,3.04705 -2.76671,5.63911 0,0 0,2.13936 2.58517,2.13936 l 18.8154,0 -4.93135,7.65669 -15.30646,0 c 0,0 -11.6344,0 -11.6344,-6.84322 0,0 -0.11949,-5.11518 8.4196,-16.98396 8.5253,-11.88946 14.36202,-12.34674 24.16037,-12.34674 9.79834,0 12.44095,3.10909 12.16061,5.69426 -0.34239,2.94824 -0.68708,4.49933 -7.06611,15.0445"
       id="path3199"
       style="fill:#254aa5;fill-opacity:1;fill-rule:evenodd;stroke:none"
       inkscape:connector-curvature="0" />
    <path
       d="m 368.54758,527.77894 c 0,0 0,2.14167 2.57597,2.14167 l 16.39339,0 -4.92446,7.65438 -12.88215,0 c 0,0 -12.54207,0.39524 -11.6252,-6.84322 0,0 -0.12868,-5.11518 8.40122,-16.98396 0,0 7.72101,-12.34674 24.38096,-12.34674 l 11.00935,0 -4.9727,7.57626 -8.86539,0 c -0.80657,0 -7.24765,0.66869 -13.01774,7.11666 -5.76549,6.44339 -6.22967,9.5226 -6.47325,11.68495"
       id="path3203"
       style="fill:#254aa5;fill-opacity:1;fill-rule:evenodd;stroke:none"
       inkscape:connector-curvature="0" />
  </g>
</svg>
